[Header]
FileType HTR
DataType HTRS
FileVersion 1
NumSegments 64
NumFrames 3
DataFrameRate 24
EulerRotationOrder ZYX
CalibrationUnits mm
RotationUnits Degrees
GlobalAxisofGravity Y
BoneLengthAxis Y
ScaleFactor 1.0
[SegmentNames&Hierarchy]
Hips	GLOBAL
Spine	Hips
Spine1	Spine
Spine2	Spine1
Neck	Spine2
Head	Neck
LeftEye	Head
RightEye	Head
LeftShoulder	Spine2
LeftArm	LeftShoulder
LeftForeArm	LeftArm
LeftHand	LeftForeArm
LeftHandThumb1	LeftHand
LeftHandThumb2	LeftHandThumb1
LeftHandThumb3	LeftHandThumb2
LeftHandThumb4	LeftHandThumb3
LeftHandIndex1	LeftHand
LeftHandIndex2	LeftHandIndex1
LeftHandIndex3	LeftHandIndex2
LeftHandIndex4	LeftHandIndex3
LeftHandMiddle1	LeftHand
LeftHandMiddle2	LeftHandMiddle1
LeftHandMiddle3	LeftHandMiddle2
LeftHandMiddle4	LeftHandMiddle3
LeftHandRing1	LeftHand
LeftHandRing2	LeftHandRing1
LeftHandRing3	LeftHandRing2
LeftHandRing4	LeftHandRing3
LeftHandPinky1	LeftHand
LeftHandPinky2	LeftHandPinky1
LeftHandPinky3	LeftHandPinky2
LeftHandPinky4	LeftHandPinky3
RightShoulder	Spine2
RightArm	RightShoulder
RightForeArm	RightArm
RightHand	RightForeArm
RightHandPinky1	RightHand
RightHandPinky2	RightHandPinky1
RightHandPinky3	RightHandPinky2
RightHandPinky4	RightHandPinky3
RightHandRing1	RightHand
RightHandRing2	RightHandRing1
RightHandRing3	RightHandRing2
RightHandRing4	RightHandRing3
RightHandMiddle1	RightHand
RightHandMiddle2	RightHandMiddle1
RightHandMiddle3	RightHandMiddle2
RightHandMiddle4	RightHandMiddle3
RightHandIndex1	RightHand
RightHandIndex2	RightHandIndex1
RightHandIndex3	RightHandIndex2
RightHandIndex4	RightHandIndex3
RightHandThumb1	RightHand
RightHandThumb2	RightHandThumb1
RightHandThumb3	RightHandThumb2
RightHandThumb4	RightHandThumb3
LeftUpLeg	Hips
LeftLeg	LeftUpLeg
LeftFoot	LeftLeg
LeftToeBase	LeftFoot
RightUpLeg	Hips
RightLeg	RightUpLeg
RightFoot	RightLeg
RightToeBase	RightFoot
[BasePosition]
Hips	0	0	0	0	0	0	1
Spine	0	0	0	0	0	0	1
Spine1	0	0	0	0	0	0	1
Spine2	0	0	0	0	0	0	1
Neck	0	0	0	0	0	0	1
Head	0	0	0	0	0	0	1
LeftEye	0	0	0	0	0	0	1
RightEye	0	0	0	0	0	0	1
LeftShoulder	0	0	0	0	0	0	1
LeftArm	0	0	0	0	0	0	1
LeftForeArm	0	0	0	0	0	0	1
LeftHand	0	0	0	0	0	0	1
LeftHandThumb1	0	0	0	0	0	0	1
LeftHandThumb2	0	0	0	0	0	0	1
LeftHandThumb3	0	0	0	0	0	0	1
LeftHandThumb4	0	0	0	0	0	0	1
LeftHandIndex1	0	0	0	0	0	0	1
LeftHandIndex2	0	0	0	0	0	0	1
LeftHandIndex3	0	0	0	0	0	0	1
LeftHandIndex4	0	0	0	0	0	0	1
LeftHandMiddle1	0	0	0	0	0	0	1
LeftHandMiddle2	0	0	0	0	0	0	1
LeftHandMiddle3	0	0	0	0	0	0	1
LeftHandMiddle4	0	0	0	0	0	0	1
LeftHandRing1	0	0	0	0	0	0	1
LeftHandRing2	0	0	0	0	0	0	1
LeftHandRing3	0	0	0	0	0	0	1
LeftHandRing4	0	0	0	0	0	0	1
LeftHandPinky1	0	0	0	0	0	0	1
LeftHandPinky2	0	0	0	0	0	0	1
LeftHandPinky3	0	0	0	0	0	0	1
LeftHandPinky4	0	0	0	0	0	0	1
RightShoulder	0	0	0	0	0	0	1
RightArm	0	0	0	0	0	0	1
RightForeArm	0	0	0	0	0	0	1
RightHand	0	0	0	0	0	0	1
RightHandPinky1	0	0	0	0	0	0	1
RightHandPinky2	0	0	0	0	0	0	1
RightHandPinky3	0	0	0	0	0	0	1
RightHandPinky4	0	0	0	0	0	0	1
RightHandRing1	0	0	0	0	0	0	1
RightHandRing2	0	0	0	0	0	0	1
RightHandRing3	0	0	0	0	0	0	1
RightHandRing4	0	0	0	0	0	0	1
RightHandMiddle1	0	0	0	0	0	0	1
RightHandMiddle2	0	0	0	0	0	0	1
RightHandMiddle3	0	0	0	0	0	0	1
RightHandMiddle4	0	0	0	0	0	0	1
RightHandIndex1	0	0	0	0	0	0	1
RightHandIndex2	0	0	0	0	0	0	1
RightHandIndex3	0	0	0	0	0	0	1
RightHandIndex4	0	0	0	0	0	0	1
RightHandThumb1	0	0	0	0	0	0	1
RightHandThumb2	0	0	0	0	0	0	1
RightHandThumb3	0	0	0	0	0	0	1
RightHandThumb4	0	0	0	0	0	0	1
LeftUpLeg	0	0	0	0	0	0	1
LeftLeg	0	0	0	0	0	0	1
LeftFoot	0	0	0	0	0	0	1
LeftToeBase	0	0	0	0	0	0	1
RightUpLeg	0	0	0	0	0	0	1
RightLeg	0	0	0	0	0	0	1
RightFoot	0	0	0	0	0	0	1
RightToeBase	0	0	0	0	0	0	1
[Hips]
12	-49.86675262	1007.618652	-50.69782639	-5.125405312	36.66067123	-7.055717945	1.0
13	-45.26210022	1008.988159	-66.55168152	-5.570094109	39.87324524	-7.264609337	1.0
14	-39.45110321	1010.375916	-82.02693939	-6.03329277	43.08090591	-7.497105598	1.0
[Spine]
12	0	101.8159943	1.315000057	1.530920029	3.852463961	1.559501886	1.0
13	0	101.8159943	1.315000057	1.392955899	3.256066561	1.752333045	1.0
14	0	101.8159943	1.315000057	1.275936723	2.605849504	1.938449025	1.0
[Spine1]
12	0	100.8349991	-10.00800037	1.492358804	6.934020042	4.556932449	1.0
13	0	100.8349991	-10.00800037	1.390452266	6.14615345	4.79771328	1.0
14	0	100.8349991	-10.00800037	1.282687902	5.221914291	4.992125034	1.0
[Spine2]
12	0	91	-13.73399925	2.01274538	7.375316143	4.41104269	1.0
13	0	91	-13.73399925	1.856880426	6.595694542	4.654353142	1.0
14	0	91	-13.73399925	1.682959199	5.680178642	4.852737904	1.0
[Neck]
12	0	166.7169952	-25.16200066	-0.2847982645	3.622271061	-6.435725689	1.0
13	0	166.7169952	-25.16200066	-0.1451220214	4.212283134	-6.302583694	1.0
14	0	166.7169952	-25.16200066	0.02169742621	4.714565754	-6.051839352	1.0
[Head]
12	0	96.17900085	16.84999847	-6.502182484	2.994805098	-12.68619537	1.0
13	0	96.17900085	16.84999847	-6.655904293	6.406919479	-14.48345375	1.0
14	0	96.17900085	16.84999847	-6.745679379	9.863714218	-16.2299881	1.0
[LeftEye]
12	30.6760006	64.09500122	92.83599854	0	0	0	1.0
13	30.6760006	64.09500122	92.83599854	0	0	0	1.0
14	30.6760006	64.09500122	92.83599854	0	0	0	1.0
[RightEye]
12	-30.6760006	64.09500122	92.83499908	0	0	0	1.0
13	-30.6760006	64.09500122	92.83499908	0	0	0	1.0
14	-30.6760006	64.09500122	92.83499908	0	0	0	1.0
[LeftShoulder]
12	45.70400238	109.4599991	-26.28000069	5.117918968	-14.18505764	-7.150947094	1.0
13	45.70400238	109.4599991	-26.28000069	5.037190437	-13.97665405	-6.758270264	1.0
14	45.70400238	109.4599991	-26.28000069	4.941819668	-13.74818134	-6.296457767	1.0
[LeftArm]
12	105.923996	-5.24600029	-22.32099915	-14.94018459	5.783504486	-84.71092987	1.0
13	105.923996	-5.24600029	-22.32099915	-12.8803091	5.860771656	-85.70973206	1.0
14	105.923996	-5.24600029	-22.32099915	-10.75678253	5.867469311	-86.7797699	1.0
[LeftForeArm]
12	278.414978	-0.0009999999311	0	6.256957931e-06	-17.85595322	-0.0002207050857	1.0
13	278.414978	-0.0009999999311	0	6.72578517e-06	-13.78540516	-0.0002092114446	1.0
14	278.414978	-0.0009999999311	0	4.878009349e-06	-9.666016579	-0.0001951630111	1.0
[LeftHand]
12	283.2879944	0	0	-26.514534	-10.69023514	-4.77895546	1.0
13	283.2879944	0	0	-24.93243599	-7.649755955	-7.902100563	1.0
14	283.2879944	0	0	-23.3731308	-4.513264179	-11.0502367	1.0
[LeftHandThumb1]
12	24.6609993	-15.75	26.8239994	16.98291016	-5.882657051	10.63066578	1.0
13	24.6609993	-15.75	26.8239994	17.62124634	-4.992725849	10.36946583	1.0
14	24.6609993	-15.75	26.8239994	18.27023697	-3.900435209	10.1505022	1.0
[LeftHandThumb2]
12	32.29800034	-18.64699936	18.64699936	-0.4353005588	33.09265137	-2.628171206	1.0
13	32.29800034	-18.64699936	18.64699936	-0.4343799055	32.74273682	-2.723172665	1.0
14	32.29800034	-18.64699936	18.64699936	-0.4335893095	32.30814743	-2.842979431	1.0
[LeftHandThumb3]
12	26.52600098	-15.31499958	15.31499958	2.067975044	9.234275818	1.084764838	1.0
13	26.52600098	-15.31499958	15.31499958	2.071526289	9.128857613	0.6945328116	1.0
14	26.52600098	-15.31499958	15.31499958	2.073979616	8.99902916	0.3318806589	1.0
[LeftHandThumb4]
12	19.54599953	-11.28499985	11.28499985	0	0	0	1.0
13	19.54599953	-11.28499985	11.28499985	0	0	0	1.0
14	19.54599953	-11.28499985	11.28499985	0	0	0	1.0
[LeftHandIndex1]
12	91.09299469	-5.170999527	22.60099792	-0.3200556636	4.810074806	-8.4697752	1.0
13	91.09299469	-5.170999527	22.60099792	-0.2547717094	4.841003418	-8.143098831	1.0
14	91.09299469	-5.170999527	22.60099792	-0.1616901606	4.837534904	-7.523400784	1.0
[LeftHandIndex2]
12	36.76399994	0	0	-0.6254230142	2.765227795	-20.51469231	1.0
13	36.76399994	0	0	-0.6260895729	2.766480923	-20.52867126	1.0
14	36.76399994	0	0	-0.627615273	2.76932168	-20.56040192	1.0
[LeftHandIndex3]
12	28.83100128	0	0	-0.1087173671	0.7997688651	-10.11235619	1.0
13	28.83100128	0	0	-0.1089635864	0.8011550307	-10.12631512	1.0
14	28.83100128	0	0	-0.1095220447	0.80429703	-10.15799427	1.0
[LeftHandIndex4]
12	23.92700005	0	0	0	0	0	1.0
13	23.92700005	0	0	0	0	0	1.0
14	23.92700005	0	0	0	0	0	1.0
[LeftHandMiddle1]
12	95.33399963	0	0	-1.557020307	8.61070919	-16.18074989	1.0
13	95.33399963	0	0	-1.544962883	8.754060745	-16.06922531	1.0
14	95.33399963	0	0	-1.508492708	8.900559425	-15.75230217	1.0
[LeftHandMiddle2]
12	36.98199844	0	0	-1.432005644	3.828915596	-33.49216843	1.0
13	36.98199844	0	0	-1.429302573	3.825995445	-33.45288467	1.0
14	36.98199844	0	0	-1.426339626	3.822793007	-33.40980911	1.0
[LeftHandMiddle3]
12	29.50900078	0	0	-0.1507073492	1.49270606	-12.33775425	1.0
13	29.50900078	0	0	-0.1498593241	1.489154696	-12.30105305	1.0
14	29.50900078	0	0	-0.1489347965	1.485271931	-12.2609539	1.0
[LeftHandMiddle4]
12	28.3390007	0	0	0	0	0	1.0
13	28.3390007	0	0	0	0	0	1.0
14	28.3390007	0	0	0	0	0	1.0
[LeftHandRing1]
12	91.04499817	-0.4390000105	-18.65100098	-3.052936554	11.44345474	-27.2254982	1.0
13	91.04499817	-0.4390000105	-18.65100098	-3.040302753	11.4347744	-27.13201714	1.0
14	91.04499817	-0.4390000105	-18.65100098	-3.005830765	11.43223572	-26.86767387	1.0
[LeftHandRing2]
12	31.54000092	0	0	-1.197900653	4.056012154	-40.20830536	1.0
13	31.54000092	0	0	-1.19502008	4.052339077	-40.16110229	1.0
14	31.54000092	0	0	-1.19224298	4.048806667	-40.11559677	1.0
[LeftHandRing3]
12	29.37700081	0	0	-0.09234710038	1.903807878	-19.34232712	1.0
13	29.37700081	0	0	-0.09123910964	1.899261355	-19.29526901	1.0
14	29.37700081	0	0	-0.09017793089	1.894901156	-19.25015831	1.0
[LeftHandRing4]
12	26.47500038	0	0	0	0	0	1.0
13	26.47500038	0	0	0	0	0	1.0
14	26.47500038	0	0	0	0	0	1.0
[LeftHandPinky1]
12	80.77799988	-4.887000084	-38.06099701	-5.31362009	16.25290489	-37.48035431	1.0
13	80.77799988	-4.887000084	-38.06099701	-5.319852829	16.40042877	-37.34992218	1.0
14	80.77799988	-4.887000084	-38.06099701	-5.303161621	16.54199028	-37.05895996	1.0
[LeftHandPinky2]
12	36	0	0	-1.935452819	3.80859375	-45.52788162	1.0
13	36	0	0	-1.937825203	3.81069684	-45.55951691	1.0
14	36	0	0	-1.942157269	3.814512491	-45.61724854	1.0
[LeftHandPinky3]
12	21.14200211	0	0	-0.5375653505	2.821574688	-20.39242935	1.0
13	21.14200211	0	0	-0.5389119387	2.824418545	-20.42398071	1.0
14	21.14200211	0	0	-0.5413800478	2.829613924	-20.48154449	1.0
[LeftHandPinky4]
12	19.75699997	0	0	0	0	0	1.0
13	19.75699997	0	0	0	0	0	1.0
14	19.75699997	0	0	0	0	0	1.0
[RightShoulder]
12	-45.70000076	109.4620056	-26.28000069	4.607011795	4.807550907	3.248651981	1.0
13	-45.70000076	109.4620056	-26.28000069	4.648043633	4.16749239	3.645687103	1.0
14	-45.70000076	109.4620056	-26.28000069	4.691553116	3.583008528	4.098881245	1.0
[RightArm]
12	-105.9280014	-5.248000145	-22.32099915	-0.6659164429	-5.071279526	69.96167755	1.0
13	-105.9280014	-5.248000145	-22.32099915	-0.9029194117	-4.012975693	68.87807465	1.0
14	-105.9280014	-5.248000145	-22.32099915	-1.192841053	-2.908334732	67.69039917	1.0
[RightForeArm]
12	-278.414978	0	0	-6.736807336e-06	14.70985985	-7.304211067e-06	1.0
13	-278.414978	0	0	-4.755251211e-06	15.7395792	-1.559190605e-05	1.0
14	-278.414978	0	0	-3.79780704e-06	16.78141785	-1.814121606e-05	1.0
[RightHand]
12	-283.2879944	0	0.0009999999311	-11.34327602	-10.46471214	12.20508385	1.0
13	-283.2879944	0	0.0009999999311	-11.80422974	-7.884848595	11.05180931	1.0
14	-283.2879944	0	0.0009999999311	-12.25936508	-5.24784565	9.558301926	1.0
[RightHandPinky1]
12	-80.76699829	-4.885000229	-38.06000137	-5.202976704	-15.98625469	36.85089874	1.0
13	-80.76699829	-4.885000229	-38.06000137	-5.209773064	-15.90500641	36.94512939	1.0
14	-80.76699829	-4.885000229	-38.06000137	-5.208636284	-15.85451221	36.96475983	1.0
[RightHandPinky2]
12	-36	0	0.0009999999311	-1.941771269	-3.813681364	45.63054657	1.0
13	-36	0	0.0009999999311	-1.940278172	-3.812378407	45.61061478	1.0
14	-36	0	0.0009999999311	-1.938610196	-3.810919285	45.58834076	1.0
[RightHandPinky3]
12	-21.14200211	0	0	-0.763958931	0.05767039955	22.09156227	1.0
13	-21.14200211	0	0	-0.7630585432	0.0594426468	22.07173157	1.0
14	-21.14200211	0	0	-0.7620512247	0.06142426282	22.0495739	1.0
[RightHandPinky4]
12	-19.75699997	0	0	0	0	0	1.0
13	-19.75699997	0	0	0	0	0	1.0
14	-19.75699997	0	0	0	0	0	1.0
[RightHandRing1]
12	-91.03599548	-0.4390000105	-18.65100098	-3.028439999	-11.52257633	27.00860596	1.0
13	-91.03599548	-0.4390000105	-18.65100098	-3.03751874	-11.49894333	27.08719635	1.0
14	-91.03599548	-0.4390000105	-18.65100098	-3.036831856	-11.48182869	27.08827972	1.0
[RightHandRing2]
12	-31.54000092	0	0	-1.201714277	-4.060650349	40.27410126	1.0
13	-31.54000092	0	0	-1.200581431	-4.059206963	40.25549316	1.0
14	-31.54000092	0	0	-1.199258089	-4.057517529	40.23373413	1.0
[RightHandRing3]
12	-29.37700081	0	0	-0.1398070157	0.08314201236	17.88636398	1.0
13	-29.37700081	0	0	-0.1393962502	0.08503234386	17.86697197	1.0
14	-29.37700081	0	0	-0.1389275491	0.08719176799	17.84477425	1.0
[RightHandRing4]
12	-26.47500038	0	0	0	0	0	1.0
13	-26.47500038	0	0	0	0	0	1.0
14	-26.47500038	0	0	0	0	0	1.0
[RightHandMiddle1]
12	-95.32500458	0	0	-1.528261423	-8.670101166	15.93650818	1.0
13	-95.32500458	0	0	-1.536056995	-8.678874969	16.00092316	1.0
14	-95.32500458	0	0	-1.534385204	-8.676426888	15.98711205	1.0
[RightHandMiddle2]
12	-36.98199844	0	0	-1.432163239	-3.828808546	33.49659729	1.0
13	-36.98199844	0	0	-1.433908224	-3.830688477	33.52199173	1.0
14	-36.98199844	0	0	-1.434673905	-3.831510782	33.53310776	1.0
[RightHandMiddle3]
12	-29.50900078	0	0	-0.2557457983	-1.685690165	15.97754669	1.0
13	-29.50900078	0	0	-0.2564860284	-1.688110948	16.00294876	1.0
14	-29.50900078	0	0	-0.2568030655	-1.689158797	16.01398468	1.0
[RightHandMiddle4]
12	-28.3390007	0	0.0009999999311	0	0	0	1.0
13	-28.3390007	0	0.0009999999311	0	0	0	1.0
14	-28.3390007	0	0.0009999999311	0	0	0	1.0
[RightHandIndex1]
12	-91.08300018	-5.167999744	22.60099792	-0.2885439694	-4.783423424	7.92195797	1.0
13	-91.08300018	-5.167999744	22.60099792	-0.3018001318	-4.773738384	8.010971069	1.0
14	-91.08300018	-5.167999744	22.60099792	-0.3071668744	-4.749479294	8.014942169	1.0
[RightHandIndex2]
12	-36.76399994	0	0	-0.6267265081	-2.767440796	20.54269218	1.0
13	-36.76399994	0	0	-0.6267066598	-2.767409325	20.54228973	1.0
14	-36.76399994	0	0	-0.6263676882	-2.766796827	20.53533936	1.0
[RightHandIndex3]
12	-28.83100128	0	0	-0.2377740741	-0.1545014828	13.81432343	1.0
13	-28.83100128	0	0	-0.2377664447	-0.1544669271	13.81392479	1.0
14	-28.83100128	0	0	-0.2376038581	-0.1537921131	13.80698395	1.0
[RightHandIndex4]
12	-23.92700005	0	0	0	0	0	1.0
13	-23.92700005	0	0	0	0	0	1.0
14	-23.92700005	0	0	0	0	0	1.0
[RightHandThumb1]
12	-24.64799881	-15.72700024	26.82600021	18.08445168	3.944979668	-10.20094109	1.0
13	-24.64799881	-15.72700024	26.82600021	17.92861748	4.232987404	-10.13735485	1.0
14	-24.64799881	-15.72700024	26.82600021	17.81737518	4.435939312	-10.09456062	1.0
[RightHandThumb2]
12	-32.29800034	-18.64699936	18.64699936	-0.4528338313	-32.78585815	2.855063915	1.0
13	-32.29800034	-18.64699936	18.64699936	-0.6329633594	-32.89855194	2.966128826	1.0
14	-32.29800034	-18.64699936	18.64699936	-0.7820957899	-32.95059967	3.046163321	1.0
[RightHandThumb3]
12	-26.52600098	-15.31399918	15.31399918	1.895859122	-8.561610222	0.8561464548	1.0
13	-26.52600098	-15.31399918	15.31399918	1.892603874	-8.550897598	0.8532291651	1.0
14	-26.52600098	-15.31399918	15.31399918	1.889930964	-8.542117119	0.850833416	1.0
[RightHandThumb4]
12	-19.54599953	-11.28499985	11.28499985	0	0	0	1.0
13	-19.54599953	-11.28499985	11.28499985	0	0	0	1.0
14	-19.54599953	-11.28499985	11.28499985	0	0	0	1.0
[LeftUpLeg]
12	82.07800293	-67.51699829	-15.99599934	-19.0429039	23.66569901	15.82040882	1.0
13	82.07800293	-67.51699829	-15.99599934	-16.85708237	27.71749115	14.87016392	1.0
14	82.07800293	-67.51699829	-15.99599934	-15.4590044	31.89461899	13.05279541	1.0
[LeftLeg]
12	0	-443.7049866	2.845999956	36.70468521	1.080505848	-10.47622871	1.0
13	0	-443.7049866	2.845999956	35.39867401	0.2924726605	-8.082279205	1.0
14	0	-443.7049866	2.845999956	33.76427078	-1.009550333	-4.76107645	1.0
[LeftFoot]
12	0	-444.2789917	-29.8219986	-20.08223915	25.1410656	0.977183938	1.0
13	0	-444.2789917	-29.8219986	-18.47603035	22.55946541	-0.4106332362	1.0
14	0	-444.2789917	-29.8219986	-15.9041357	20.21987724	-2.272534609	1.0
[LeftToeBase]
12	0	-87.28699493	107.1060028	20.26335907	2.703652535e-05	2.73111209e-06	1.0
13	0	-87.28699493	107.1060028	14.45967865	2.240300091e-05	3.427582214e-06	1.0
14	0	-87.28699493	107.1060028	6.303555012	1.261914804e-05	3.577467396e-06	1.0
[RightUpLeg]
12	-82.07800293	-67.51699829	-15.99599934	-11.35436249	-5.480758667	16.4377861	1.0
13	-82.07800293	-67.51699829	-15.99599934	-12.51293087	-5.236290932	15.81009769	1.0
14	-82.07800293	-67.51699829	-15.99599934	-13.58196449	-5.147958755	15.11890984	1.0
[RightLeg]
12	0	-443.7049866	2.861999989	14.52683926	-9.590506554	-3.041331768	1.0
13	0	-443.7049866	2.861999989	15.51682663	-9.071082115	-4.33176136	1.0
14	0	-443.7049866	2.861999989	16.62977982	-8.480222702	-5.684038162	1.0
[RightFoot]
12	0	-444.2770081	-29.83799934	-5.506043911	-29.62627983	-6.87485218	1.0
13	0	-444.2770081	-29.83799934	-4.847538948	-30.41418648	-5.570055008	1.0
14	0	-444.2770081	-29.83799934	-4.334523678	-30.65247917	-4.180211544	1.0
[RightToeBase]
12	0	-87.28699493	107.1060028	-0.4943725467	-2.634811608e-06	-1.845954216e-06	1.0
13	0	-87.28699493	107.1060028	-0.4323652387	-5.123147275e-06	-8.280545671e-07	1.0
14	0	-87.28699493	107.1060028	-0.3730427921	-3.827935871e-06	3.805551501e-07	1.0
[EndOfFile]
